<?xml version="1.0" encoding="UTF-8" standalone="no"?>
<!-- Created with Inkscape (http://www.inkscape.org/) -->

<svg
   width="256"
   height="256"
   viewBox="0 0 256 256"
   version="1.1"
   id="svg1"
   xml:space="preserve"
   inkscape:export-filename="hide.png"
   inkscape:export-xdpi="96"
   inkscape:export-ydpi="96"
   inkscape:version="1.4.2 (f4327f4, 2025-05-13)"
   sodipodi:docname="multimedia.svg"
   xmlns:inkscape="http://www.inkscape.org/namespaces/inkscape"
   xmlns:sodipodi="http://sodipodi.sourceforge.net/DTD/sodipodi-0.dtd"
   xmlns="http://www.w3.org/2000/svg"
   xmlns:svg="http://www.w3.org/2000/svg"><sodipodi:namedview
     id="namedview1"
     pagecolor="#505050"
     bordercolor="#eeeeee"
     borderopacity="1"
     inkscape:showpageshadow="0"
     inkscape:pageopacity="0"
     inkscape:pagecheckerboard="0"
     inkscape:deskcolor="#505050"
     inkscape:document-units="px"
     inkscape:zoom="1.5898437"
     inkscape:cx="173.28747"
     inkscape:cy="145.92629"
     inkscape:window-width="1920"
     inkscape:window-height="1009"
     inkscape:window-x="1432"
     inkscape:window-y="-8"
     inkscape:window-maximized="1"
     inkscape:current-layer="layer1" /><defs
     id="defs1" /><g
     inkscape:label="Camada 1"
     inkscape:groupmode="layer"
     id="layer1"><g
       id="g1"
       transform="matrix(9.7968706,0,0,9.7968706,10.409151,10.427301)"
       style="display:none;fill:#ffffff;fill-opacity:1;stroke-width:3.40245"
       inkscape:label="mute"><path
         d="M 11.38,4.08 A 1,1 0 0 0 10.29,4.29 L 6.59,8 H 4 a 2,2 0 0 0 -2,2 v 4 a 2,2 0 0 0 2,2 h 2.59 l 3.7,3.71 A 1,1 0 0 0 11,20 0.84,0.84 0 0 0 11.38,19.92 1,1 0 0 0 12,19 V 5 A 1,1 0 0 0 11.38,4.08 Z"
         style="fill:#ffffff;fill-opacity:1;stroke-width:3.40245"
         id="path1" /><path
         d="m 16,15.5 a 1,1 0 0 1 -0.71,-0.29 1,1 0 0 1 0,-1.42 l 5,-5 a 1.0040916,1.0040916 0 0 1 1.42,1.42 l -5,5 A 1,1 0 0 1 16,15.5 Z"
         style="fill:#ffffff;fill-opacity:1;stroke-width:3.40245"
         id="path2" /><path
         d="m 21,15.5 a 1,1 0 0 1 -0.71,-0.29 l -5,-5 a 1.0040916,1.0040916 0 0 1 1.42,-1.42 l 5,5 a 1,1 0 0 1 0,1.42 A 1,1 0 0 1 21,15.5 Z"
         style="fill:#ffffff;fill-opacity:1;stroke-width:3.40245"
         id="path3" /></g><g
       id="g2"
       transform="matrix(9.7990852,0,0,9.7990852,10.42144,10.400723)"
       style="display:none;fill:#ffffff;fill-opacity:1;stroke-width:3.40168"
       inkscape:label="audio"><path
         d="m 18.36,19.36 a 1,1 0 0 1 -0.7,-0.29 1,1 0 0 1 0,-1.41 8,8 0 0 0 0,-11.32 1,1 0 0 1 1.41,-1.41 10,10 0 0 1 0,14.14 1,1 0 0 1 -0.71,0.29 z"
         style="fill:#ffffff;fill-opacity:1;stroke-width:3.40168"
         id="path1-0" /><path
         d="m 15.54,16.54 a 1,1 0 0 1 -0.71,-0.3 1,1 0 0 1 0,-1.41 4,4 0 0 0 0,-5.66 1,1 0 0 1 1.41,-1.41 6,6 0 0 1 0,8.48 1,1 0 0 1 -0.7,0.3 z"
         style="fill:#ffffff;fill-opacity:1;stroke-width:3.40168"
         id="path2-9" /><path
         d="M 11.38,4.08 A 1,1 0 0 0 10.29,4.29 L 6.59,8 H 4 a 2,2 0 0 0 -2,2 v 4 a 2,2 0 0 0 2,2 h 2.59 l 3.7,3.71 A 1,1 0 0 0 11,20 0.84,0.84 0 0 0 11.38,19.92 1,1 0 0 0 12,19 V 5 A 1,1 0 0 0 11.38,4.08 Z"
         style="display:inline;fill:#ffffff;fill-opacity:1;stroke-width:3.40168"
         id="path3-4" /></g><path
       d="M 81.58832,50.679249 A 13.497163,13.497163 0 0 0 61.018643,62.169835 V 193.83017 a 13.497163,13.497163 0 0 0 20.569677,11.49058 l 106.96952,-65.83016 a 13.497163,13.497163 0 0 0 0,-22.99017 z"
       fill="#000000"
       id="path1-4"
       style="display:none;fill:#ffffff;fill-opacity:1;stroke-width:33.3333"
       inkscape:label="play" /><path
       fill-rule="evenodd"
       clip-rule="evenodd"
       d="M 5.163,3.819 C 5,4.139 5,4.559 5,5.4 v 13.2 c 0,0.84 0,1.26 0.163,1.581 a 1.5,1.5 0 0 0 0.656,0.655 C 6.139,21 6.559,21 7.4,21 h 0.2 c 0.84,0 1.26,0 1.581,-0.163 A 1.5,1.5 0 0 0 9.837,20.181 C 10,19.861 10,19.441 10,18.6 V 5.4 C 10,4.56 10,4.14 9.837,3.819 A 1.5,1.5 0 0 0 9.181,3.163 C 8.861,3 8.441,3 7.6,3 H 7.4 C 6.56,3 6.14,3 5.819,3.163 A 1.5,1.5 0 0 0 5.163,3.819 Z m 9,0 C 14,4.139 14,4.559 14,5.4 v 13.2 c 0,0.84 0,1.26 0.164,1.581 a 1.5,1.5 0 0 0 0.655,0.655 C 15.139,21 15.559,21 16.4,21 h 0.2 c 0.84,0 1.26,0 1.581,-0.163 a 1.5,1.5 0 0 0 0.655,-0.656 C 19,19.861 19,19.441 19,18.6 V 5.4 C 19,4.56 19,4.14 18.837,3.819 A 1.5,1.5 0 0 0 18.181,3.163 C 17.861,3 17.441,3 16.6,3 h -0.2 c -0.84,0 -1.26,0 -1.581,0.163 a 1.5,1.5 0 0 0 -0.655,0.656 z"
       fill="#000000"
       id="path1-7"
       style="display:none;fill:#ffffff;fill-opacity:1;stroke-width:3.48356"
       transform="matrix(9.5687655,0,0,9.5687655,13.174814,13.174814)"
       inkscape:label="pause" /><path
       fill-rule="evenodd"
       clip-rule="evenodd"
       d="m 35.352524,68.854863 c 0,-9.509485 10.826897,-14.983238 18.480873,-9.333211 L 118.85044,107.468 V 68.854863 c 0,-9.509485 10.82689,-14.983238 18.48087,-9.333211 l 77.66234,57.279578 a 13.91632,13.91632 0 0 1 0,22.39599 l -77.66234,57.27956 c -7.65398,5.65003 -18.48087,0.18556 -18.48087,-9.33319 v -38.62243 l -65.017043,47.95562 c -7.653976,5.65003 -18.480873,0.18556 -18.480873,-9.33319 z"
       fill="#000000"
       id="path1-2"
       style="display:none;fill:#ffffff;fill-opacity:1;stroke-width:33.3334"
       inkscape:label="next_frame" /><path
       fill-rule="evenodd"
       clip-rule="evenodd"
       d="m 220.64747,68.854865 c 0,-9.509485 -10.82689,-14.983238 -18.48087,-9.333211 L 137.14956,107.468 V 68.854865 c 0,-9.509485 -10.82689,-14.983238 -18.48087,-9.333211 L 41.006349,116.80123 a 13.91632,13.91632 0 0 0 0,22.39599 l 77.662341,57.27956 c 7.65398,5.65003 18.48087,0.18556 18.48087,-9.33319 v -38.62243 l 65.01704,47.95562 c 7.65398,5.65003 18.48087,0.18556 18.48087,-9.33319 z"
       fill="#000000"
       id="path4"
       style="display:none;fill:#ffffff;fill-opacity:1;stroke-width:33.3334"
       inkscape:label="next_frame" /><path
       fill-rule="evenodd"
       clip-rule="evenodd"
       d="m 43.079911,128 c 0,-18.19716 30.328602,-60.657202 84.920089,-60.657202 54.59148,0 84.92009,42.460042 84.92009,60.657202 0,18.19716 -30.32861,60.6572 -84.92009,60.6572 -54.591487,0 -84.920089,-42.46004 -84.920089,-60.6572 z M 128,166.41623 a 38.41623,38.41623 0 1 0 0,-76.832457 38.41623,38.41623 0 0 0 0,76.832457 z M 149.83659,128 a 21.836594,21.836594 0 1 1 -43.67318,0 21.836594,21.836594 0 0 1 43.67318,0 z"
       fill="#000000"
       id="path1-42"
       style="display:none;fill:#ffffff;fill-opacity:1;stroke-width:33.3333"
       inkscape:label="show" /><path
       fill-rule="evenodd"
       clip-rule="evenodd"
       d="m 198.36236,198.31359 a 8.081125,8.081125 0 0 0 0,-11.42671 L 69.064356,57.58888 A 8.081125,8.081125 0 0 0 57.637645,69.01559 L 73.088757,84.474783 C 53.532435,98.358156 43.148188,117.30839 43.148188,127.95124 c 0,18.18253 30.304219,60.60843 84.851812,60.60843 15.48344,0 29.01124,-3.41831 40.45411,-8.72761 l 18.48154,18.48153 a 8.081125,8.081125 0 0 0 11.42671,0 z m -49.5373,-38.11058 -12.2025,-12.2025 a 21.819038,21.819038 0 0 1 -28.67183,-28.67183 l -12.202499,-12.2025 a 38.385344,38.385344 0 0 0 53.076829,53.07683 z m 64.02675,-32.25177 c 0,8.12153 -6.05276,21.09173 -17.61685,32.95482 L 166.1914,131.85442 A 38.385344,38.385344 0 0 0 124.09682,89.759838 L 104.46777,70.138867 c 7.24876,-1.777848 15.10362,-2.796069 23.53223,-2.796069 54.5476,0 84.85181,42.425902 84.85181,60.608442 z"
       fill="#000000"
       id="path1-1"
       style="display:inline;fill:#ffffff;fill-opacity:1;stroke-width:33.3334"
       inkscape:label="hide" /></g></svg>
